<svg xmlns="http://www.w3.org/2000/svg" viewBox="0 0 1200 675" role="img" aria-labelledby="t d"><title id="t">Aynı arayüz farklı boyutlarda</title><desc id="d">Aynı mobil arayüzün telefon, tablet ve geniş pencere boyutlarına uyarlanması.</desc><rect width="1200" height="675" fill="#fafaf7"/><circle cx="1100" cy="64" r="150" fill="#e9d5ff"/><circle cx="1160" cy="715" r="150" fill="#ff9f1c"/><g transform="translate(0,78)"><text x="90" y="88" fill="#111114" font-family="Arial,Helvetica,sans-serif" font-size="27" font-weight="700">AYNI ARAYÜZ, ÜÇ FARKLI PENCERE</text><rect x="120" y="150" width="180" height="220" rx="26" fill="#ffffff" stroke="#111114" stroke-width="3"/><rect x="138" y="168" width="144" height="30" rx="10" fill="#ff3b4a" opacity="0.8"/><rect x="138" y="208" width="144" height="120" rx="12" fill="#e7ff3c"/><text x="210" y="392" fill="#111114" font-family="Arial,Helvetica,sans-serif" font-size="20" font-weight="700" text-anchor="middle">telefon</text><rect x="360" y="150" width="300" height="220" rx="26" fill="#ffffff" stroke="#111114" stroke-width="3"/><rect x="378" y="168" width="264" height="30" rx="10" fill="#ff3b4a" opacity="0.8"/><rect x="378" y="208" width="264" height="120" rx="12" fill="#e7ff3c"/><text x="510" y="392" fill="#111114" font-family="Arial,Helvetica,sans-serif" font-size="20" font-weight="700" text-anchor="middle">tablet</text><rect x="720" y="150" width="390" height="220" rx="26" fill="#ffffff" stroke="#111114" stroke-width="3"/><rect x="738" y="168" width="354" height="30" rx="10" fill="#ff3b4a" opacity="0.8"/><rect x="738" y="208" width="354" height="120" rx="12" fill="#e7ff3c"/><text x="915" y="392" fill="#111114" font-family="Arial,Helvetica,sans-serif" font-size="20" font-weight="700" text-anchor="middle">geniş pencere</text><text x="90" y="470" fill="#111114" font-family="Arial,Helvetica,sans-serif" font-size="21" font-weight="700">KIRILMA NOKTASI CIHAZ ADI DEĞIL, PENCERE GENIŞLIĞIDIR</text></g></svg>